<?xml version="1.0" encoding="utf-8"?>
<svg version="1.1" viewBox="229.32 173.727 310.038 133.123" width="459" height="313.5" xmlns="http://www.w3.org/2000/svg">
  <defs>
    <marker orient="auto" overflow="visible" markerUnits="strokeWidth" id="FilledArrow_Marker" stroke-linejoin="miter" stroke-miterlimit="10" viewBox="-1 -4 10 8" markerWidth="10" markerHeight="8" color="black">
      <g>
        <path d="M 8 0 L 0 -3 L 0 3 Z" fill="currentColor" stroke="currentColor" stroke-width="1"/>
      </g>
    </marker>
  </defs>
  <g id="CoachBot" stroke-opacity="1" stroke-dasharray="none" stroke="none" fill="none" fill-opacity="1">
    <title>CoachBot</title>
    <g id="CoachBot: Layer 1">
      <title>Layer 1</title>
      <g id="Graphic_2">
        <rect x="366" y="200.25" width="166.5" height="100.25" fill="white"/>
        <path d="M 365.66003 200.25035 L 533.03884 200.0792 M 532.7066 199.71938 L 532.59124 300.7772 M 532.9068 300.5558 L 365.7697 300.68424 M 366.01637 301.1456 L 365.99993 199.8294 M 365.72248 200.13775 L 532.7687 200.00343 M 532.83084 199.65695 L 532.70355 300.4936 M 532.9693 300.52645 L 366.07884 300.67514 M 366.0665 301.0831 L 366.043 200.1875" stroke="black" stroke-linecap="round" stroke-linejoin="round" stroke-width="1"/>
      </g>
      <g id="Graphic_3">
        <text transform="translate(413.75 236.26172)" fill="black" style="white-space: pre;">
          <tspan font-family="Futura" font-size="16" font-weight="500" fill="black" x=".109375" y="17">CoachBot</tspan>
        </text>
      </g>
    </g>
    <g id="CoachBot: Layer 2">
      <title>Layer 2</title>
      <g id="Graphic_4">
        <rect x="261" y="192" width="76" height="82" fill="#ccc"/>
        <text transform="translate(266 197.1809)" fill="black" style="white-space: pre;">
          <tspan font-family="Futura" font-size="11" font-weight="500" fill="black" x="0" y="11">Create Goal</tspan>
          <tspan font-family="Futura" font-size="11" font-weight="500" fill="black" x="0" y="25.327637">Update Goal</tspan>
          <tspan font-family="Futura" font-size="11" font-weight="500" fill="black" x="0" y="39.655273">Stop</tspan>
          <tspan font-family="Futura" font-size="11" font-weight="500" fill="black" x="0" y="53.98291">Status</tspan>
          <tspan font-family="Futura" font-size="11" font-weight="500" fill="black" x="0" y="68.31055">Help</tspan>
        </text>
      </g>
      <g id="Line_5">
        <line x1="337" y1="233.3781" x2="356.1005" y2="233.56816" marker-end="url(#FilledArrow_Marker)" stroke="black" stroke-linecap="round" stroke-linejoin="round" stroke-width="1"/>
      </g>
      <g id="Graphic_20">
        <path d="M 278.5 190.375 C 278.5 184.08592 268.7721 179 256.75 179 C 244.7279 179 235 184.08592 235 190.375 C 235 195.73448 242.1366 200.24612 251.71618 201.42184 C 250.93014 203.4454 249.6347 205.82428 247.59542 207 C 251.52478 207 255.41194 204.21092 258.06675 201.72256 C 269.47288 201.36724 278.5 196.41796 278.5 190.375 Z" fill="white"/>
        <path d="M 278.5 190.375 C 278.5 184.08592 268.7721 179 256.75 179 C 244.7279 179 235 184.08592 235 190.375 C 235 195.73448 242.1366 200.24612 251.71618 201.42184 C 250.93014 203.4454 249.6347 205.82428 247.59542 207 C 251.52478 207 255.41194 204.21092 258.06675 201.72256 C 269.47288 201.36724 278.5 196.41796 278.5 190.375 Z" stroke="black" stroke-linecap="round" stroke-linejoin="round" stroke-width="1"/>
        <text transform="translate(240 184.56597)" fill="black" style="white-space: pre;">
          <tspan font-family="Futura" font-size="9" font-weight="500" fill="black" x="7.176514" y="9">SMS</tspan>
        </text>
      </g>
    </g>
  </g>
</svg>